<?xml version="1.0" encoding="iso-8859-1"?>
<!-- Generator: Adobe Illustrator 19.0.0, SVG Export Plug-In . SVG Version: 6.00 Build 0)  -->
<svg version="1.1" id="Capa_1" xmlns="http://www.w3.org/2000/svg" xmlns:xlink="http://www.w3.org/1999/xlink" x="0px" y="0px"
	 viewBox="0 0 71.872 71.872" style="enable-background:new 0 0 71.872 71.872;" xml:space="preserve">
<g>
	<path d="M52.489,53.488c-0.256,0-0.512-0.098-0.707-0.293L18.728,20.142c-0.391-0.391-0.391-1.023,0-1.414s1.023-0.391,1.414,0
		l33.054,33.053c0.391,0.391,0.391,1.023,0,1.414C53,53.39,52.745,53.488,52.489,53.488z"/>
	<path d="M53.551,54.552H39.556c-0.553,0-1-0.447-1-1s0.447-1,1-1h13.995c0.553,0,1,0.447,1,1S54.104,54.552,53.551,54.552z"/>
	<path d="M53.551,54.552c-0.553,0-1-0.447-1-1V39.424c0-0.553,0.447-1,1-1s1,0.447,1,1v14.128
		C54.551,54.104,54.104,54.552,53.551,54.552z"/>
	<path d="M32.384,19.256L32.384,19.256l-13.995-0.001c-0.553,0-1-0.448-1-1c0-0.553,0.447-1,1-1l0,0l13.995,0.001
		c0.553,0,1,0.448,1,1C33.384,18.808,32.936,19.256,32.384,19.256z"/>
	<path d="M18.388,33.384L18.388,33.384c-0.553,0-1-0.448-1-1l0.001-14.129c0-0.553,0.448-1,1-1l0,0c0.553,0,1,0.448,1,1
		l-0.001,14.129C19.388,32.936,18.941,33.384,18.388,33.384z"/>
	<path d="M19.16,53.575c-0.256,0-0.512-0.098-0.707-0.293c-0.391-0.391-0.391-1.023,0-1.414l33.242-33.243
		c0.391-0.391,1.023-0.391,1.414,0s0.391,1.023,0,1.414L19.867,53.282C19.671,53.477,19.416,53.575,19.16,53.575z"/>
	<path d="M18.286,54.448c-0.553,0-1-0.447-1-1V39.453c0-0.553,0.447-1,1-1s1,0.447,1,1v13.995
		C19.286,54.001,18.838,54.448,18.286,54.448z"/>
	<path d="M32.415,54.448H18.286c-0.553,0-1-0.447-1-1s0.447-1,1-1h14.129c0.553,0,1,0.447,1,1S32.967,54.448,32.415,54.448z"/>
	<path d="M53.583,33.28c-0.552,0-1-0.447-1-1l-0.001-13.995c0-0.552,0.447-1,1-1c0.552,0,1,0.447,1,1l0.001,13.995
		C54.583,32.832,54.135,33.28,53.583,33.28z"/>
	<path d="M53.582,19.285H39.453c-0.553,0-1-0.447-1-1s0.447-1,1-1h14.129c0.553,0,1,0.447,1,1S54.134,19.285,53.582,19.285z"/>
	<path d="M35.936,71.872c-9.207,0-18.414-3.505-25.423-10.514c-14.018-14.018-14.018-36.827,0-50.845s36.828-14.018,50.846,0
		s14.018,36.827,0,50.845C54.35,68.367,45.143,71.872,35.936,71.872z M35.936,1.999c-8.694,0-17.39,3.31-24.009,9.929
		c-13.238,13.238-13.238,34.778,0,48.017s34.779,13.238,48.018,0s13.238-34.778,0-48.017C53.326,5.308,44.63,1.999,35.936,1.999z"/>
</g>
<g>
</g>
<g>
</g>
<g>
</g>
<g>
</g>
<g>
</g>
<g>
</g>
<g>
</g>
<g>
</g>
<g>
</g>
<g>
</g>
<g>
</g>
<g>
</g>
<g>
</g>
<g>
</g>
<g>
</g>
</svg>
